<svg version="1.1" id="Layer_1" xmlns="http://www.w3.org/2000/svg" xmlns:xlink="http://www.w3.org/1999/xlink" x="0px" y="0px"
	 width="100%" viewBox="0 0 220 220" enable-background="new 0 0 220 220" xml:space="preserve">
<path fill="#EFE7D9" opacity="1.000000" stroke="none" 
	d="
M90.000000,0.999999 
	C103.687561,1.000000 117.375122,1.000000 131.214111,1.333870 
	C132.022186,2.104466 132.621918,2.715687 133.344162,2.951147 
	C141.263916,5.533069 149.487823,7.405959 157.076828,10.731682 
	C172.641647,17.552628 186.146790,27.564047 196.423370,41.159863 
	C201.990234,48.524776 206.107544,56.985382 210.566956,65.067886 
	C205.805313,68.682259 201.543976,72.458168 196.872330,75.629669 
	C178.547165,88.070335 159.233109,92.813148 137.997498,82.981277 
	C134.790359,81.496399 130.952698,81.179680 127.355690,80.765800 
	C115.134483,79.359642 102.883156,78.215973 90.659904,76.826294 
	C87.378670,76.453239 84.162888,75.145264 80.904083,75.094208 
	C79.400658,75.070656 77.243988,76.738411 76.538361,78.197716 
	C75.952568,79.409187 76.489449,82.281067 77.507256,82.968048 
	C83.857246,87.254066 90.482323,91.132530 96.682854,95.391907 
	C93.230972,95.762329 90.113411,95.927879 86.993713,95.998940 
	C84.324738,96.059731 81.653290,96.012177 78.655724,96.033875 
	C77.899162,95.980690 77.469826,95.906181 76.952087,95.492783 
	C74.141525,91.461906 70.362045,91.668083 66.143448,92.366318 
	C65.233528,92.198654 64.638672,91.996300 63.977203,91.458969 
	C61.068607,89.366447 57.313213,88.234558 55.586185,85.713280 
	C52.551163,81.282471 48.458565,80.542473 43.684437,79.983978 
	C43.463032,79.927269 43.086514,79.668091 43.057983,79.321983 
	C41.547573,78.057831 40.065693,77.139793 38.423347,76.177795 
	C38.262882,76.133827 38.025642,75.900497 37.974190,75.554108 
	C36.457077,74.233749 34.991421,73.259781 33.222683,72.161942 
	C26.975834,66.964539 21.032068,61.891003 15.085449,56.464569 
	C22.014849,45.284554 29.392223,34.964790 39.595341,26.717991 
	C54.161476,14.944726 70.106834,6.460678 88.580467,2.913384 
	C89.154930,2.803076 89.531281,1.661041 90.000000,0.999999 
z"/>
<path fill="#EEE6D9" opacity="1.000000" stroke="none" 
	d="
M221.000000,127.000000 
	C221.000000,128.388885 221.000000,129.777786 220.666351,131.265610 
	C219.858887,133.013763 219.381927,134.662064 218.911743,136.312317 
	C212.334961,159.395477 201.252396,179.606537 182.422775,195.176651 
	C167.963837,207.132690 151.923523,215.530960 133.424850,219.086655 
	C132.848587,219.197433 132.470490,220.338989 132.000000,221.000000 
	C118.312439,221.000000 104.624878,221.000000 90.786148,220.666214 
	C88.985771,219.858490 87.337509,219.381226 85.687218,218.911133 
	C62.603981,212.335785 42.395618,201.250854 26.824089,182.423767 
	C14.865644,167.965149 6.470090,151.923538 2.913180,133.424973 
	C2.802365,132.848663 1.660952,132.470520 1.000001,132.000000 
	C1.000000,118.312439 1.000000,104.624878 1.322857,90.785904 
	C2.479246,88.097481 3.312777,85.560471 4.415909,83.205711 
	C8.029533,86.694901 11.373556,90.001831 14.825630,93.212242 
	C14.933681,93.115730 14.690454,93.273201 14.740340,93.610062 
	C18.141991,97.367256 21.493755,100.787590 24.870338,104.154449 
	C24.895159,104.100983 24.790560,104.155365 24.864601,104.483139 
	C26.274456,107.026970 27.610268,109.243034 28.541748,111.407562 
	C25.577480,112.119652 21.981186,111.584938 22.303295,116.326797 
	C24.505871,118.806480 26.734673,120.951363 29.146040,123.382545 
	C32.889225,125.750183 36.449844,127.831528 40.283344,130.053528 
	C41.303547,130.495865 42.050869,130.797531 42.993847,131.389099 
	C41.490952,132.418640 39.768452,133.108414 38.099586,133.909897 
	C35.728626,135.048553 33.397121,136.269363 31.048763,137.455063 
	C32.545624,139.467087 33.624184,142.221329 35.620815,143.346588 
	C40.807186,146.269547 46.360954,148.559860 51.840790,150.934937 
	C54.701488,152.174835 57.715477,153.061066 61.604488,154.442429 
	C59.335327,155.123703 58.051968,155.211487 57.149864,155.843475 
	C55.419403,157.055832 52.772018,158.452179 52.601147,160.003128 
	C52.407063,161.764740 54.122890,164.243729 55.712387,165.562241 
	C57.559456,167.094437 60.107075,167.893555 62.459728,168.687668 
	C87.341400,177.086212 112.619553,178.781296 138.186371,172.423462 
	C167.925400,165.028076 193.389282,149.672867 216.305862,129.705566 
	C217.641998,128.541382 219.424973,127.890022 221.000000,127.000000 
z"/>
<path fill="#3B2618" opacity="1.000000" stroke="none" 
	d="
M221.000000,126.531342 
	C219.424973,127.890022 217.641998,128.541382 216.305862,129.705566 
	C193.389282,149.672867 167.925400,165.028076 138.186371,172.423462 
	C112.619553,178.781296 87.341400,177.086212 62.459728,168.687668 
	C60.107075,167.893555 57.559456,167.094437 55.712387,165.562241 
	C54.122890,164.243729 52.407063,161.764740 52.601147,160.003128 
	C52.772018,158.452179 55.419403,157.055832 57.149864,155.843475 
	C58.051968,155.211487 59.335327,155.123703 61.604488,154.442429 
	C57.715477,153.061066 54.701488,152.174835 51.840790,150.934937 
	C46.360954,148.559860 40.807186,146.269547 35.620815,143.346588 
	C33.624184,142.221329 32.545624,139.467087 31.048763,137.455063 
	C33.397121,136.269363 35.728626,135.048553 38.099586,133.909897 
	C39.768452,133.108414 41.490952,132.418640 43.284607,131.134430 
	C43.585808,129.058929 43.791901,127.527992 44.305668,126.160507 
	C48.790936,128.173767 52.968529,130.023575 57.110703,131.902374 
	C57.075275,131.931351 57.072887,131.839844 57.171387,132.088654 
	C57.555077,132.540497 57.840275,132.743500 58.085518,132.942902 
	C58.045570,132.939270 58.084976,132.869385 58.100048,133.241898 
	C59.526752,135.652588 60.938385,137.690765 62.350018,139.728943 
	C63.360542,138.842758 64.371071,137.956558 65.570724,137.116364 
	C65.759850,137.162338 65.910889,137.521103 66.053192,137.886826 
	C68.846199,139.458984 71.496895,140.665421 74.108994,141.888275 
	C74.070389,141.904694 74.059418,141.821518 74.217239,142.096085 
	C74.960609,142.544556 75.546173,142.718475 76.081825,142.895844 
	C76.031921,142.899307 76.104790,142.830750 76.143990,143.207184 
	C77.511246,143.999252 78.839310,144.414902 80.121857,144.834015 
	C80.076347,144.837479 80.112663,144.753723 80.213417,145.127090 
	C81.617569,149.055420 84.598816,147.821274 87.082062,147.901428 
	C87.039314,147.916336 87.068253,147.830536 87.209709,148.176575 
	C89.768837,149.286667 92.186508,150.050720 94.963303,150.767181 
	C100.239929,152.174271 105.157433,153.628952 110.350449,155.336319 
	C114.135818,156.060394 117.699478,156.303467 121.130058,157.111511 
	C122.575218,157.451920 123.739540,158.984665 124.578522,159.984039 
	C121.334488,159.992676 118.543457,159.992676 115.752419,159.992676 
	C115.770096,160.615524 115.787773,161.238358 115.805450,161.861206 
	C122.114975,161.861206 128.430283,161.996582 134.728333,161.727753 
	C135.776184,161.683029 136.748886,159.877625 137.756332,158.885849 
	C136.828766,158.242874 135.901199,157.599899 135.030701,156.598083 
	C135.568878,155.387955 136.302399,154.588486 136.489502,153.676880 
	C137.587982,148.324783 140.521759,145.116806 146.074768,143.958633 
	C148.121902,143.531677 150.185684,141.820038 151.613358,140.155304 
	C153.170654,138.339447 154.399582,135.870010 151.129532,133.803986 
	C150.889771,133.283218 150.698212,133.029404 150.444641,132.520615 
	C150.318375,131.803329 150.167725,131.406250 150.075119,130.674591 
	C150.153702,129.888245 150.174240,129.436478 150.421478,128.694916 
	C150.741180,126.911079 150.834213,125.417023 150.935471,123.967033 
	C150.943695,124.011101 150.901001,123.931381 151.267349,123.911850 
	C154.497406,122.445679 157.710739,121.169212 154.966064,116.660156 
	C154.851288,115.408875 154.757477,114.500381 154.725357,113.219910 
	C154.151337,112.262733 153.515656,111.677528 152.932800,111.055740 
	C152.985626,111.019150 152.904282,111.118668 152.896973,110.756348 
	C149.059052,106.248032 145.228409,102.102051 141.264313,97.648483 
	C141.096634,96.897835 141.062424,96.454773 141.325897,95.960449 
	C141.728012,95.295387 142.146973,94.394707 141.888779,94.111633 
	C138.950882,90.890648 135.308472,90.230331 130.853622,91.548203 
	C129.969421,91.674591 129.459106,91.710266 128.625519,91.534439 
	C124.815819,91.886162 121.320770,92.401436 117.844841,93.023491 
	C112.172234,94.038681 106.512085,95.123505 100.656166,96.186134 
	C100.465652,96.193321 100.103256,96.311890 99.799194,96.171219 
	C98.668839,95.735703 97.842545,95.440872 97.016251,95.146042 
	C90.482323,91.132530 83.857246,87.254066 77.507256,82.968048 
	C76.489449,82.281067 75.952568,79.409187 76.538361,78.197716 
	C77.243988,76.738411 79.400658,75.070656 80.904083,75.094208 
	C84.162888,75.145264 87.378670,76.453239 90.659904,76.826294 
	C102.883156,78.215973 115.134483,79.359642 127.355690,80.765800 
	C130.952698,81.179680 134.790359,81.496399 137.997498,82.981277 
	C159.233109,92.813148 178.547165,88.070335 196.872330,75.629669 
	C201.543976,72.458168 205.805313,68.682259 210.865173,65.268410 
	C213.341599,70.429451 215.159882,75.524559 217.091995,80.576126 
	C218.306366,83.751190 219.691483,86.860947 221.000000,90.000000 
	C221.000000,102.020897 221.000000,114.041786 221.000000,126.531342 
M157.988770,131.201157 
	C157.904617,129.618912 157.820450,128.036682 157.686127,125.511475 
	C155.552078,126.582970 154.250259,127.236618 152.962708,127.883095 
	C153.862274,129.791199 154.300858,131.267410 155.208588,132.350449 
	C155.525864,132.729004 156.998932,132.138901 157.988770,131.201157 
z"/>
<path fill="#000000" opacity="1.000000" stroke="none" 
	d="
M221.000000,89.531342 
	C219.691483,86.860947 218.306366,83.751190 217.091995,80.576126 
	C215.159882,75.524559 213.341599,70.429451 211.176956,65.152245 
	C206.107544,56.985382 201.990234,48.524776 196.423370,41.159863 
	C186.146790,27.564047 172.641647,17.552628 157.076828,10.731682 
	C149.487823,7.405959 141.263916,5.533069 133.344162,2.951147 
	C132.621918,2.715687 132.022186,2.104466 131.682770,1.333870 
	C161.593582,1.000000 191.187149,1.000000 221.000000,1.000000 
	C221.000000,30.353865 221.000000,59.708275 221.000000,89.531342 
z"/>
<path fill="#000000" opacity="1.000000" stroke="none" 
	d="
M4.146307,83.023453 
	C3.312777,85.560471 2.479246,88.097481 1.322857,90.317245 
	C1.000000,60.406418 1.000000,30.812840 1.000000,1.000000 
	C30.353865,1.000000 59.708275,1.000000 89.531342,0.999999 
	C89.531281,1.661041 89.154930,2.803076 88.580467,2.913384 
	C70.106834,6.460678 54.161476,14.944726 39.595341,26.717991 
	C29.392223,34.964790 22.014849,45.284554 14.754416,56.638428 
	C11.342103,65.104477 8.257971,73.043777 5.054026,81.262650 
	C4.671577,82.035973 4.408942,82.529709 4.146307,83.023453 
z"/>
<path fill="#000000" opacity="1.000000" stroke="none" 
	d="
M1.000001,132.468658 
	C1.660952,132.470520 2.802365,132.848663 2.913180,133.424973 
	C6.470090,151.923538 14.865644,167.965149 26.824089,182.423767 
	C42.395618,201.250854 62.603981,212.335785 85.687218,218.911133 
	C87.337509,219.381226 88.985771,219.858490 90.317490,220.666214 
	C60.406422,221.000000 30.812845,221.000000 1.000000,221.000000 
	C1.000000,191.646133 1.000000,162.291733 1.000001,132.468658 
z"/>
<path fill="#000000" opacity="1.000000" stroke="none" 
	d="
M132.468658,221.000000 
	C132.470490,220.338989 132.848587,219.197433 133.424850,219.086655 
	C151.923523,215.530960 167.963837,207.132690 182.422775,195.176651 
	C201.252396,179.606537 212.334961,159.395477 218.911743,136.312317 
	C219.381927,134.662064 219.858887,133.013763 220.666351,131.682281 
	C221.000000,161.593582 221.000000,191.187149 221.000000,221.000000 
	C191.646133,221.000000 162.291733,221.000000 132.468658,221.000000 
z"/>
<path fill="#F39123" opacity="1.000000" stroke="none" 
	d="
M5.173840,80.983070 
	C8.257971,73.043777 11.342103,65.104477 14.757269,56.991325 
	C21.032068,61.891003 26.975834,66.964539 33.379646,72.457260 
	C35.235012,73.884460 36.630329,74.892479 38.025642,75.900497 
	C38.025642,75.900497 38.262882,76.133827 38.554611,76.471741 
	C39.911831,77.823586 40.977322,78.837524 42.027092,80.139145 
	C42.004593,80.618782 41.997810,80.810738 41.623898,81.009537 
	C39.198875,82.952881 36.953449,84.731819 35.148125,86.880524 
	C33.916870,88.345970 33.701180,90.773964 32.337479,91.999260 
	C27.387312,96.447044 30.811493,102.262466 35.700081,104.034576 
	C37.556519,104.707535 39.583683,104.987740 41.326244,105.860054 
	C42.076550,106.235649 42.301289,107.661125 42.764793,108.609642 
	C41.809456,109.000893 40.601074,109.970688 39.942783,109.682777 
	C37.161190,108.466179 34.577168,106.806419 31.845184,105.462631 
	C31.019419,105.056450 29.949549,105.146561 28.635696,104.963455 
	C27.116789,104.663498 25.953674,104.409431 24.790560,104.155365 
	C24.790560,104.155365 24.895159,104.100983 24.883682,103.788101 
	C21.478289,100.074539 18.084373,96.673866 14.690455,93.273201 
	C14.690454,93.273201 14.933681,93.115730 14.883356,92.841354 
	C11.613302,88.705666 8.393572,84.844368 5.173840,80.983070 
z"/>
<path fill="#EC932B" opacity="1.000000" stroke="none" 
	d="
M77.040482,95.831665 
	C77.469826,95.906181 77.899162,95.980690 78.943794,96.274429 
	C81.738434,96.959435 83.917778,97.425224 85.810089,98.176788 
	C83.348473,98.640663 81.173882,98.818756 78.680573,98.855255 
	C77.238701,98.489029 76.115555,98.264397 74.593231,98.031723 
	C73.129356,98.015488 72.064667,98.007301 70.697678,97.838821 
	C67.930946,96.451515 65.466507,95.224503 62.669441,93.995956 
	C61.893303,93.992943 61.449791,93.991463 60.823959,93.761536 
	C60.096394,93.354881 59.551155,93.176674 59.015907,92.581139 
	C59.075016,91.605850 59.124138,91.047882 59.533455,90.550934 
	C61.277042,91.005943 62.660427,91.399948 64.043816,91.793945 
	C64.638672,91.996300 65.233528,92.198654 66.370766,92.654053 
	C70.288925,93.881950 73.664703,94.856812 77.040482,95.831665 
z"/>
<path fill="#F8DAB7" opacity="1.000000" stroke="none" 
	d="
M63.977203,91.458977 
	C62.660427,91.399948 61.277042,91.005943 59.383514,90.374184 
	C58.431091,90.020340 57.988808,89.904259 57.330444,89.514908 
	C55.401894,88.231293 53.689426,87.220947 51.745106,86.067764 
	C51.160805,85.860916 50.808350,85.796921 50.228493,85.479996 
	C47.969334,83.498283 45.937588,81.769485 43.905842,80.040688 
	C48.458565,80.542473 52.551163,81.282471 55.586185,85.713280 
	C57.313213,88.234558 61.068607,89.366447 63.977203,91.458977 
z"/>
<path fill="#F8DAB7" opacity="1.000000" stroke="none" 
	d="
M86.097130,97.891014 
	C83.917778,97.425224 81.738434,96.959435 79.271011,96.253098 
	C81.653290,96.012177 84.324738,96.059731 86.993713,95.998940 
	C90.113411,95.927879 93.230972,95.762329 96.682854,95.391907 
	C97.842545,95.440872 98.668839,95.735703 99.507660,96.411423 
	C96.338516,97.241318 93.156830,97.690331 89.592163,98.058090 
	C88.171829,97.948235 87.134483,97.919624 86.097130,97.891014 
z"/>
<path fill="#F8DAB7" opacity="1.000000" stroke="none" 
	d="
M76.952087,95.492783 
	C73.664703,94.856812 70.288925,93.881950 66.685822,92.619354 
	C70.362045,91.668083 74.141525,91.461906 76.952087,95.492783 
z"/>
<path fill="#EC932B" opacity="1.000000" stroke="none" 
	d="
M43.684437,79.983978 
	C45.937588,81.769485 47.969334,83.498283 49.863045,85.570084 
	C49.478714,85.950684 49.232422,85.988281 48.677124,85.884460 
	C46.580219,85.827805 44.792320,85.912560 43.003960,85.665802 
	C43.005825,84.892326 43.008160,84.450386 43.217369,83.828644 
	C42.946503,82.766792 42.468765,81.884750 41.991028,81.002701 
	C41.997810,80.810738 42.004593,80.618782 42.291782,80.115074 
	C42.743633,79.758240 42.915073,79.713165 43.086514,79.668091 
	C43.086514,79.668091 43.463032,79.927269 43.684437,79.983978 
z"/>
<path fill="#F8DAB7" opacity="1.000000" stroke="none" 
	d="
M37.974190,75.554108 
	C36.630329,74.892479 35.235012,73.884460 33.682732,72.581131 
	C34.991421,73.259781 36.457077,74.233749 37.974190,75.554108 
z"/>
<path fill="#F8DAB7" opacity="1.000000" stroke="none" 
	d="
M43.057983,79.321983 
	C42.915073,79.713165 42.743633,79.758240 42.307503,79.827393 
	C40.977322,78.837524 39.911831,77.823586 38.715073,76.515701 
	C40.065693,77.139793 41.547573,78.057831 43.057983,79.321983 
z"/>
<path fill="#EC932B" opacity="1.000000" stroke="none" 
	d="
M24.864601,104.483139 
	C25.953674,104.409431 27.116789,104.663498 28.784559,105.279358 
	C30.679235,110.503807 35.681767,111.299004 38.727787,114.192245 
	C44.015728,119.214973 49.071503,124.293388 56.148056,127.308548 
	C57.541943,127.736099 58.775707,127.882492 60.254158,128.025482 
	C60.498840,128.022079 60.988171,128.012939 60.995094,128.346100 
	C61.334576,129.452850 61.667137,130.226425 62.064484,131.338776 
	C64.085281,132.786270 66.041283,133.894958 68.142899,135.277618 
	C69.195969,136.368622 70.103409,137.185684 71.015030,138.236465 
	C71.019196,138.470184 71.062515,138.935699 70.991158,139.021362 
	C70.919800,139.107040 70.778412,139.279480 70.421532,139.197083 
	C68.680061,138.583496 67.295479,138.052307 65.910889,137.521103 
	C65.910889,137.521103 65.759850,137.162338 65.375885,136.889130 
	C62.689602,135.367065 60.387291,134.118225 58.084976,132.869385 
	C58.084976,132.869385 58.045570,132.939270 57.992043,132.684479 
	C57.649967,132.233078 57.361427,132.036469 57.072887,131.839844 
	C57.072887,131.839844 57.075275,131.931351 56.933010,131.616241 
	C52.560410,128.500229 48.330070,125.699326 44.010311,122.667236 
	C43.776314,122.109032 43.530647,121.901947 43.023026,121.562195 
	C42.298862,121.142532 41.735565,120.975456 41.043060,120.525604 
	C39.952858,119.477341 38.991859,118.711868 38.017410,117.973213 
	C38.003960,118.000038 38.060692,117.980476 37.965858,117.731735 
	C37.597332,117.280891 37.323639,117.078796 37.048496,116.916214 
	C37.047043,116.955727 37.125549,116.946220 37.037926,116.691582 
	C36.637878,116.279327 36.325455,116.121712 36.008087,115.983963 
	C36.003147,116.003830 36.034847,115.977592 35.878014,115.705605 
	C34.832550,114.929825 33.943924,114.426033 33.022675,113.944786 
	C32.990047,113.967331 33.062038,113.940224 32.866886,113.619469 
	C31.757627,112.988739 30.843519,112.678764 29.824373,112.162994 
	C29.464191,111.787117 29.206440,111.621078 28.946081,111.459091 
	C27.610268,109.243034 26.274456,107.026970 24.864601,104.483139 
z"/>
<path fill="#3B2618" opacity="1.000000" stroke="none" 
	d="
M28.541748,111.407562 
	C29.206440,111.621078 29.464191,111.787117 29.980745,112.528107 
	C31.182117,113.379425 32.122078,113.659821 33.062038,113.940224 
	C33.062038,113.940224 32.990047,113.967331 33.064709,114.292786 
	C34.104530,115.071365 35.069687,115.524483 36.034847,115.977592 
	C36.034847,115.977592 36.003147,116.003830 36.130836,116.210510 
	C36.547531,116.593536 36.836540,116.769875 37.125549,116.946220 
	C37.125549,116.946220 37.047043,116.955727 37.146965,117.157677 
	C37.518158,117.566574 37.789429,117.773521 38.060692,117.980469 
	C38.060692,117.980476 38.003960,118.000038 38.014114,118.328316 
	C38.686111,119.452911 39.347958,120.249237 39.948185,121.357056 
	C38.649025,123.547630 37.173557,125.489441 40.990242,126.358246 
	C40.633732,127.766098 40.322102,128.839478 40.010468,129.912872 
	C36.449844,127.831528 32.889225,125.750183 29.154793,122.993591 
	C28.753870,119.983185 28.526762,117.648033 28.365704,115.992004 
	C26.116013,115.992004 24.222767,115.992004 22.329521,115.992004 
	C21.981186,111.584938 25.577480,112.119652 28.541748,111.407562 
z"/>
<path fill="#EC932B" opacity="1.000000" stroke="none" 
	d="
M5.054027,81.262650 
	C8.393572,84.844368 11.613302,88.705666 14.775307,92.937866 
	C11.373556,90.001831 8.029533,86.694901 4.415908,83.205711 
	C4.408942,82.529709 4.671577,82.035973 5.054027,81.262650 
z"/>
<path fill="#EC932B" opacity="1.000000" stroke="none" 
	d="
M14.740341,93.610062 
	C18.084373,96.673866 21.478289,100.074539 24.858864,103.841568 
	C21.493755,100.787590 18.141991,97.367256 14.740341,93.610062 
z"/>
<path fill="#3F2A1C" opacity="1.000000" stroke="none" 
	d="
M22.303295,116.326797 
	C24.222767,115.992004 26.116013,115.992004 28.365704,115.992004 
	C28.526762,117.648033 28.753870,119.983185 28.972229,122.707298 
	C26.734673,120.951363 24.505871,118.806480 22.303295,116.326797 
z"/>
<path fill="#45260A" opacity="1.000000" stroke="none" 
	d="
M40.283348,130.053528 
	C40.322102,128.839478 40.633732,127.766098 41.360115,126.352577 
	C42.516685,126.008408 43.258495,126.004356 44.000153,126.000153 
	C44.000000,126.000000 43.997993,125.997047 43.997993,125.997047 
	C43.791901,127.527992 43.585808,129.058929 43.088951,130.844543 
	C42.050869,130.797531 41.303547,130.495865 40.283348,130.053528 
z"/>
<path fill="#F79020" opacity="1.000000" stroke="none" 
	d="
M150.017075,131.009186 
	C150.167725,131.406250 150.318375,131.803329 150.064819,132.608383 
	C147.217987,137.870758 143.538910,140.923035 138.139709,142.458282 
	C134.833832,143.398270 131.708588,145.108810 131.529312,149.969711 
	C131.441055,152.362625 128.969574,155.381393 124.963531,154.239166 
	C123.412819,153.797028 121.660927,154.060455 120.000511,153.628555 
	C120.000938,152.507019 120.001534,151.759399 120.382866,151.062012 
	C122.949417,151.292450 125.658905,153.982895 127.071167,149.582703 
	C127.524582,148.897171 127.846313,148.452789 128.394928,147.748611 
	C128.415314,145.983582 128.208847,144.478348 128.209229,142.721436 
	C129.945145,140.977097 131.474197,139.484451 133.378937,138.046539 
	C136.174606,138.072067 138.594620,138.042831 141.347839,138.006592 
	C142.451385,137.661163 143.221725,137.322739 143.996552,136.621704 
	C143.967911,135.775467 143.934738,135.291809 143.907227,134.611603 
	C143.912872,134.415024 144.013138,134.034744 144.224930,133.857971 
	C144.013275,133.095184 143.589813,132.509186 142.905579,131.880005 
	C142.468567,131.836334 142.292358,131.835815 142.057098,131.623230 
	C141.850372,131.143280 141.799347,130.858124 141.773834,130.242172 
	C141.365219,129.693817 141.027786,129.458969 140.684875,129.347137 
	C140.679428,129.470154 140.433640,129.485596 140.700226,129.187332 
	C141.974411,127.260292 142.982010,125.631516 144.389664,124.001785 
	C145.855804,124.001945 146.921890,124.003067 147.989227,124.426682 
	C148.666016,126.902504 149.341537,128.955841 150.017075,131.009186 
z"/>
<path fill="#EC932B" opacity="1.000000" stroke="none" 
	d="
M110.074944,155.083633 
	C105.157433,153.628952 100.239929,152.174271 94.694115,150.494080 
	C91.733284,149.455917 89.400772,148.643219 87.068253,147.830536 
	C87.068253,147.830536 87.039314,147.916336 86.867233,147.628662 
	C84.500984,146.478561 82.306824,145.616135 80.112663,144.753723 
	C80.112663,144.753723 80.076347,144.837479 79.926231,144.566803 
	C78.552338,143.807678 77.328560,143.319214 76.104790,142.830750 
	C76.104790,142.830750 76.031921,142.899307 75.914505,142.635742 
	C75.217865,142.188614 74.638641,142.005066 74.059418,141.821503 
	C74.059418,141.821518 74.070389,141.904694 73.949173,141.624374 
	C72.811440,140.655869 71.794930,139.967667 70.778412,139.279480 
	C70.778412,139.279480 70.919800,139.107040 71.222137,139.033600 
	C71.524467,138.960144 71.988403,138.931610 72.356339,138.961243 
	C74.143097,139.331665 75.561928,139.672485 77.209106,140.283875 
	C83.300468,142.576797 89.163490,144.599152 95.524567,146.793289 
	C95.280403,149.868195 97.828278,150.375381 101.244789,149.784103 
	C102.320183,149.598007 103.976173,149.189529 104.454796,149.714294 
	C107.512756,153.067093 111.365135,153.164474 115.425400,153.107239 
	C116.273804,153.095291 117.138184,154.217316 117.556793,154.894241 
	C114.770576,155.009033 112.422760,155.046341 110.074944,155.083633 
z"/>
<path fill="#4D280A" opacity="1.000000" stroke="none" 
	d="
M110.350449,155.336319 
	C112.422760,155.046341 114.770576,155.009033 117.793152,154.956329 
	C118.467911,154.940918 118.950485,155.017441 119.215996,155.341431 
	C121.635971,155.769196 123.932686,156.393158 125.910858,155.852234 
	C128.729599,155.081421 133.005035,154.040176 133.680618,152.085403 
	C135.658066,146.363647 139.032349,143.384995 144.743225,142.131180 
	C146.537292,141.737305 148.038773,140.010666 149.978745,138.759399 
	C150.473312,138.232635 150.663300,137.840515 150.842087,137.201080 
	C150.975327,135.971100 151.119751,134.988403 151.264175,134.005707 
	C154.399582,135.870010 153.170654,138.339447 151.613358,140.155304 
	C150.185684,141.820038 148.121902,143.531677 146.074768,143.958633 
	C140.521759,145.116806 137.587982,148.324783 136.489502,153.676880 
	C136.302399,154.588486 135.568878,155.387955 134.642578,156.612396 
	C131.142075,157.982178 128.086792,158.978790 125.031525,159.975388 
	C123.739540,158.984665 122.575218,157.451920 121.130058,157.111511 
	C117.699478,156.303467 114.135818,156.060394 110.350449,155.336319 
z"/>
<path fill="#EC932B" opacity="1.000000" stroke="none" 
	d="
M151.129532,133.803986 
	C151.119751,134.988403 150.975327,135.971100 150.586533,137.390808 
	C150.119492,138.183243 149.896835,138.538635 149.674164,138.894043 
	C148.038773,140.010666 146.537292,141.737305 144.743225,142.131180 
	C139.032349,143.384995 135.658066,146.363647 133.680618,152.085403 
	C133.005035,154.040176 128.729599,155.081421 125.910858,155.852234 
	C123.932686,156.393158 121.635971,155.769196 119.433784,155.220123 
	C119.662041,154.573929 119.866920,154.316483 120.000687,154.002441 
	C121.660927,154.060455 123.412819,153.797028 124.963531,154.239166 
	C128.969574,155.381393 131.441055,152.362625 131.529312,149.969711 
	C131.708588,145.108810 134.833832,143.398270 138.139709,142.458282 
	C143.538910,140.923035 147.217987,137.870758 150.040436,132.928604 
	C150.698212,133.029404 150.889771,133.283218 151.129532,133.803986 
z"/>
<path fill="#EC932B" opacity="1.000000" stroke="none" 
	d="
M128.948776,91.745941 
	C129.459106,91.710266 129.969421,91.674591 131.194016,91.696533 
	C133.605698,92.153084 135.303101,92.551994 137.000153,93.323463 
	C138.331940,95.465027 139.664078,97.234047 141.082504,99.144577 
	C141.168777,99.286102 141.139023,99.616249 141.097046,100.041702 
	C141.036499,101.311646 141.017944,102.156128 140.681335,103.141426 
	C139.245193,103.523888 138.127136,103.765533 136.859711,103.774216 
	C136.408768,103.332771 136.107178,103.124290 135.798965,102.615265 
	C135.784668,101.913986 135.777008,101.513260 136.047470,100.894508 
	C135.509048,99.800491 134.692505,98.924500 133.638733,97.996124 
	C133.401505,97.943748 132.954834,97.752464 132.851852,97.640747 
	C132.437714,97.398010 132.179428,97.480598 131.970551,97.883438 
	C131.967041,97.990082 132.015091,98.198006 131.641296,98.145584 
	C130.515366,98.029785 129.763214,97.966415 128.981964,97.502274 
	C126.788567,96.186661 124.624260,95.271812 122.620209,94.038635 
	C124.836555,93.062180 126.892670,92.404060 128.948776,91.745941 
z"/>
<path fill="#35251D" opacity="1.000000" stroke="none" 
	d="
M124.578522,159.984039 
	C128.086792,158.978790 131.142075,157.982178 134.585480,156.971252 
	C135.901199,157.599899 136.828766,158.242874 137.756332,158.885849 
	C136.748886,159.877625 135.776184,161.683029 134.728333,161.727753 
	C128.430283,161.996582 122.114975,161.861206 115.805450,161.861206 
	C115.787773,161.238358 115.770096,160.615524 115.752419,159.992676 
	C118.543457,159.992676 121.334488,159.992676 124.578522,159.984039 
z"/>
<path fill="#EC932B" opacity="1.000000" stroke="none" 
	d="
M150.075119,130.674591 
	C149.341537,128.955841 148.666016,126.902504 147.994171,124.093597 
	C148.000351,122.893990 148.002853,122.449959 148.351013,121.929901 
	C149.859482,119.353081 154.767593,117.477173 149.962601,113.645065 
	C148.650146,111.163658 147.384094,109.025597 146.456055,106.938492 
	C148.830811,108.365860 150.867538,109.742264 152.904282,111.118668 
	C152.904282,111.118668 152.985626,111.019150 153.007416,111.362129 
	C153.574036,112.334038 154.118851,112.962959 154.663681,113.591888 
	C154.757477,114.500381 154.851288,115.408875 154.728027,116.895142 
	C153.307648,119.625725 152.104324,121.778549 150.901001,123.931381 
	C150.901001,123.931381 150.943695,124.011101 150.630371,124.216599 
	C150.276276,125.942970 150.235535,127.463844 150.194794,128.984711 
	C150.174240,129.436478 150.153702,129.888245 150.075119,130.674591 
z"/>
<path fill="#5B3010" opacity="1.000000" stroke="none" 
	d="
M128.625519,91.534439 
	C126.892670,92.404060 124.836555,93.062180 122.618088,94.048706 
	C122.455727,94.377121 122.443787,94.398682 122.162033,94.265305 
	C118.243713,95.066399 114.607147,96.000862 110.591873,96.971016 
	C109.455956,97.068306 108.698738,97.129913 107.527855,97.128662 
	C105.025017,96.770187 102.935852,96.474564 100.846680,96.178940 
	C106.512085,95.123505 112.172234,94.038681 117.844841,93.023491 
	C121.320770,92.401436 124.815819,91.886162 128.625519,91.534439 
z"/>
<path fill="#5B3010" opacity="1.000000" stroke="none" 
	d="
M152.896973,110.756348 
	C150.867538,109.742264 148.830811,108.365860 146.443390,106.947037 
	C146.092697,106.904633 146.091156,106.927238 145.986969,106.645233 
	C145.288376,105.838989 144.693970,105.314758 144.041504,104.590843 
	C143.851440,104.121979 143.638748,103.956596 143.273193,103.668724 
	C143.201035,103.442436 143.008148,103.008850 142.969681,102.683182 
	C142.333817,101.443756 141.736420,100.529999 141.139023,99.616249 
	C141.139023,99.616249 141.168777,99.286102 141.167496,98.876900 
	C141.243408,98.297157 141.320587,98.126610 141.397781,97.956062 
	C145.228409,102.102051 149.059052,106.248032 152.896973,110.756348 
z"/>
<path fill="#45260A" opacity="1.000000" stroke="none" 
	d="
M44.099739,122.898422 
	C48.330070,125.699326 52.560410,128.500229 56.968437,131.587250 
	C52.968529,130.023575 48.790936,128.173767 44.305668,126.160507 
	C43.997993,125.997047 44.000000,126.000000 43.998825,125.631348 
	C43.973366,124.525703 43.949081,123.788727 43.969757,123.014809 
	C44.014717,122.977875 44.099739,122.898422 44.099739,122.898422 
z"/>
<path fill="#3A260A" opacity="1.000000" stroke="none" 
	d="
M157.966476,131.596161 
	C156.998932,132.138901 155.525864,132.729004 155.208588,132.350449 
	C154.300858,131.267410 153.862274,129.791199 152.962708,127.883095 
	C154.250259,127.236618 155.552078,126.582970 157.686127,125.511475 
	C157.820450,128.036682 157.904617,129.618912 157.966476,131.596161 
z"/>
<path fill="#EC932B" opacity="1.000000" stroke="none" 
	d="
M100.656166,96.186127 
	C102.935852,96.474564 105.025017,96.770187 107.263687,97.354836 
	C104.609138,98.428780 101.805077,99.213692 98.652039,99.843567 
	C96.537666,99.470398 94.772293,99.252281 92.631271,99.024841 
	C91.504517,99.017380 90.753395,99.019249 89.993790,98.800728 
	C89.985306,98.580338 89.975151,98.139351 89.975151,98.139343 
	C93.156830,97.690331 96.338516,97.241318 99.811722,96.552094 
	C100.103256,96.311890 100.465652,96.193321 100.656166,96.186127 
z"/>
<path fill="#45260A" opacity="1.000000" stroke="none" 
	d="
M58.100052,133.241898 
	C60.387291,134.118225 62.689602,135.367065 65.186752,136.843140 
	C64.371071,137.956558 63.360542,138.842758 62.350018,139.728943 
	C60.938385,137.690765 59.526752,135.652588 58.100052,133.241898 
z"/>
<path fill="#5B3010" opacity="1.000000" stroke="none" 
	d="
M137.000519,92.950912 
	C135.303101,92.551994 133.605698,92.153084 131.567886,91.605827 
	C135.308472,90.230331 138.950882,90.890648 141.888779,94.111633 
	C142.146973,94.394707 141.728012,95.295387 141.082336,95.745880 
	C139.360901,94.705345 138.180710,93.828125 137.000519,92.950912 
z"/>
<path fill="#5B3010" opacity="1.000000" stroke="none" 
	d="
M151.267349,123.911850 
	C152.104324,121.778549 153.307648,119.625725 154.749023,117.237923 
	C157.710739,121.169212 154.497406,122.445679 151.267349,123.911850 
z"/>
<path fill="#E3912F" opacity="1.000000" stroke="none" 
	d="
M137.000153,93.323463 
	C138.180710,93.828125 139.360901,94.705345 140.784668,95.797134 
	C141.062424,96.454773 141.096634,96.897835 141.264313,97.648483 
	C141.320587,98.126610 141.243408,98.297157 141.081223,98.735382 
	C139.664078,97.234047 138.331940,95.465027 137.000153,93.323463 
z"/>
<path fill="#45260A" opacity="1.000000" stroke="none" 
	d="
M80.213417,145.127090 
	C82.306824,145.616135 84.500984,146.478561 86.909981,147.613754 
	C84.598816,147.821274 81.617569,149.055420 80.213417,145.127090 
z"/>
<path fill="#45260A" opacity="1.000000" stroke="none" 
	d="
M70.421532,139.197083 
	C71.794930,139.967667 72.811440,140.655869 73.987778,141.607956 
	C71.496895,140.665421 68.846199,139.458984 66.053192,137.886826 
	C67.295479,138.052307 68.680061,138.583496 70.421532,139.197083 
z"/>
<path fill="#45260A" opacity="1.000000" stroke="none" 
	d="
M87.209709,148.176575 
	C89.400772,148.643219 91.733284,149.455917 94.334991,150.541687 
	C92.186508,150.050720 89.768837,149.286667 87.209709,148.176575 
z"/>
<path fill="#45260A" opacity="1.000000" stroke="none" 
	d="
M76.143990,143.207184 
	C77.328560,143.319214 78.552338,143.807678 79.971741,144.563354 
	C78.839310,144.414902 77.511246,143.999252 76.143990,143.207184 
z"/>
<path fill="#5B3010" opacity="1.000000" stroke="none" 
	d="
M150.421478,128.694916 
	C150.235535,127.463844 150.276276,125.942970 150.622131,124.172531 
	C150.834213,125.417023 150.741180,126.911079 150.421478,128.694916 
z"/>
<path fill="#5B3010" opacity="1.000000" stroke="none" 
	d="
M154.725357,113.219910 
	C154.118851,112.962959 153.574036,112.334038 152.954590,111.398712 
	C153.515656,111.677528 154.151337,112.262733 154.725357,113.219910 
z"/>
<path fill="#45260A" opacity="1.000000" stroke="none" 
	d="
M74.217239,142.096069 
	C74.638641,142.005066 75.217865,142.188614 75.964401,142.632263 
	C75.546173,142.718475 74.960609,142.544556 74.217239,142.096069 
z"/>
<path fill="#45260A" opacity="1.000000" stroke="none" 
	d="
M57.171387,132.088654 
	C57.361427,132.036469 57.649967,132.233078 58.031990,132.688110 
	C57.840275,132.743500 57.555077,132.540497 57.171387,132.088654 
z"/>
<path fill="#F69022" opacity="1.000000" stroke="none" 
	d="
M89.592163,98.058098 
	C89.975151,98.139351 89.985306,98.580338 90.038116,99.130371 
	C90.727402,100.292137 91.363869,100.903877 92.000336,101.515610 
	C92.335854,100.688454 92.671379,99.861305 93.006912,99.034164 
	C94.772293,99.252281 96.537666,99.470398 98.817307,100.077591 
	C99.888588,100.978973 100.445618,101.491287 100.992096,102.351402 
	C100.320839,103.464745 99.660141,104.230278 98.953270,104.657143 
	C96.548714,100.405106 95.491577,103.227989 95.208015,105.309669 
	C94.508507,110.444824 94.734360,115.551003 98.002762,120.427338 
	C98.049858,121.718269 98.096382,122.580963 98.200043,123.578079 
	C98.257179,123.712509 98.149559,123.984100 97.802170,124.044998 
	C97.292999,125.405357 97.131218,126.704811 96.996490,128.411621 
	C96.942764,129.901886 96.861992,130.984833 96.562744,132.349640 
	C96.229301,134.087692 96.114342,135.543839 95.646072,137.045685 
	C93.982849,137.626877 92.672935,138.162399 91.363022,138.697922 
	C91.525139,139.144745 91.687256,139.591583 91.849380,140.038406 
	C93.235199,139.688599 94.621025,139.338776 96.409836,138.993256 
	C98.018845,139.444824 99.251724,139.831299 100.426071,140.350250 
	C104.792015,142.279526 111.341095,141.000717 112.961098,137.907028 
	C113.003418,137.941589 112.897919,137.913162 113.293709,137.942352 
	C114.753990,137.199203 115.818481,136.426880 117.006783,135.479736 
	C117.335045,135.080002 117.589233,134.965622 118.205475,134.949051 
	C118.997490,134.588531 119.477188,134.240753 119.979919,133.933105 
	C120.002945,133.973236 119.913857,133.948288 120.147034,133.847137 
	C120.579842,133.478577 120.779488,133.211166 120.985611,132.973572 
	C120.992104,133.003403 120.946091,132.962051 121.300415,132.972809 
	C122.770134,132.658157 123.885529,132.332733 124.995026,132.356750 
	C124.326088,134.137665 123.663048,135.569153 122.662201,137.041229 
	C120.880363,138.049393 119.436310,139.016983 117.657776,140.038834 
	C114.828117,141.501999 112.006477,142.877365 116.954994,145.300873 
	C117.666260,146.368515 118.237801,147.172134 118.573685,147.962479 
	C118.338028,147.949219 117.864830,147.982834 117.562439,148.052643 
	C116.319115,150.482925 116.399132,150.567245 120.002136,151.011765 
	C120.001534,151.759399 120.000938,152.507019 120.000511,153.628540 
	C119.866920,154.316483 119.662041,154.573929 119.168274,154.896118 
	C118.950485,155.017441 118.467911,154.940918 118.231552,154.878845 
	C117.138184,154.217316 116.273804,153.095291 115.425400,153.107239 
	C111.365135,153.164474 107.512756,153.067093 104.454796,149.714294 
	C103.976173,149.189529 102.320183,149.598007 101.244789,149.784103 
	C97.828278,150.375381 95.280403,149.868195 95.524567,146.793289 
	C89.163490,144.599152 83.300468,142.576797 77.128273,139.921936 
	C75.215462,138.862350 73.611824,138.435287 72.004547,138.004608 
	C72.000923,138.000961 71.996185,137.996185 71.995102,137.622925 
	C72.154907,133.843964 70.523598,133.627472 67.997284,135.003662 
	C66.041283,133.894958 64.085281,132.786270 62.407410,131.294159 
	C65.710411,129.622986 66.678123,127.917137 63.597805,124.687546 
	C62.569679,125.997673 61.778927,127.005310 60.988174,128.012939 
	C60.988171,128.012939 60.498840,128.022079 60.212456,127.684380 
	C60.321442,125.480286 60.716812,123.613892 60.908321,122.709854 
	C55.772633,118.485817 50.811485,114.405342 45.507153,110.042603 
	C44.104851,115.519394 47.808041,117.683609 51.052490,119.958611 
	C53.605774,121.748962 56.919102,122.861557 55.987934,127.027397 
	C49.071503,124.293388 44.015728,119.214973 38.727787,114.192245 
	C35.681767,111.299004 30.679235,110.503807 29.140354,105.325241 
	C29.949549,105.146561 31.019419,105.056450 31.845184,105.462631 
	C34.577168,106.806419 37.161190,108.466179 39.942783,109.682777 
	C40.601074,109.970688 41.809456,109.000893 42.764793,108.609642 
	C42.301289,107.661125 42.076550,106.235649 41.326244,105.860054 
	C39.583683,104.987740 37.556519,104.707535 35.700081,104.034576 
	C30.811493,102.262466 27.387312,96.447044 32.337479,91.999260 
	C33.701180,90.773964 33.916870,88.345970 35.148125,86.880524 
	C36.953449,84.731819 39.198875,82.952881 41.623898,81.009537 
	C42.468765,81.884750 42.946503,82.766792 42.930618,83.872406 
	C42.131832,84.411964 41.826672,84.727943 41.521507,85.043922 
	C42.015812,85.361725 42.510117,85.679527 43.004425,85.997322 
	C44.792320,85.912560 46.580219,85.827805 48.566460,86.138100 
	C48.515213,87.028343 48.265625,87.523529 48.016449,88.421814 
	C48.031452,93.605980 51.662727,91.513290 53.925095,92.312698 
	C52.596222,93.782181 51.250702,94.836830 50.029591,96.019897 
	C49.158207,96.864136 48.453953,97.880875 47.675125,98.820648 
	C49.018246,99.050858 50.646656,99.879883 51.651924,99.400955 
	C54.893551,97.856544 57.905682,95.830414 61.006279,93.989983 
	C61.449791,93.991463 61.893303,93.992943 62.666981,94.376678 
	C61.235687,97.308983 59.474224,99.859039 57.101639,103.293793 
	C62.268082,101.325600 66.634026,99.662361 70.999977,97.999123 
	C72.064667,98.007301 73.129356,98.015488 74.597214,98.406693 
	C75.717583,100.054611 76.434784,101.319504 77.151978,102.584396 
	C77.767746,101.388542 78.383522,100.192696 78.999298,98.996841 
	C81.173882,98.818756 83.348473,98.640663 85.810089,98.176788 
	C87.134483,97.919624 88.171829,97.948235 89.592163,98.058098 
M45.863064,101.249763 
	C45.711166,102.342735 45.559269,103.435707 45.407372,104.528679 
	C46.445156,104.431656 47.482937,104.334633 48.520721,104.237602 
	C47.873463,103.212334 47.226200,102.187057 45.863064,101.249763 
M83.656662,136.501297 
	C83.692642,135.741653 83.728630,134.982025 83.764610,134.222397 
	C82.287186,134.510818 80.809761,134.799240 79.332336,135.087677 
	C79.397362,135.583588 79.462395,136.079498 79.527428,136.575424 
	C80.684525,136.651733 81.841629,136.728058 83.656662,136.501297 
z"/>
<path fill="#F39123" opacity="1.000000" stroke="none" 
	d="
M60.823959,93.761536 
	C57.905682,95.830414 54.893551,97.856544 51.651924,99.400955 
	C50.646656,99.879883 49.018246,99.050858 47.675125,98.820648 
	C48.453953,97.880875 49.158207,96.864136 50.029591,96.019897 
	C51.250702,94.836830 52.596222,93.782181 53.989338,92.005066 
	C54.726372,90.891304 55.362587,90.445099 56.050892,90.315842 
	C57.070625,91.421341 58.038269,92.209908 59.005913,92.998466 
	C59.551155,93.176674 60.096394,93.354881 60.823959,93.761536 
z"/>
<path fill="#F39123" opacity="1.000000" stroke="none" 
	d="
M70.697678,97.838821 
	C66.634026,99.662361 62.268082,101.325600 57.101639,103.293793 
	C59.474224,99.859039 61.235687,97.308983 62.999611,94.378220 
	C65.466507,95.224503 67.930946,96.451515 70.697678,97.838821 
z"/>
<path fill="#F39123" opacity="1.000000" stroke="none" 
	d="
M78.680565,98.855255 
	C78.383522,100.192696 77.767746,101.388542 77.151978,102.584396 
	C76.434784,101.319504 75.717583,100.054611 74.996399,98.414742 
	C76.115555,98.264397 77.238701,98.489029 78.680565,98.855255 
z"/>
<path fill="#F69022" opacity="1.000000" stroke="none" 
	d="
M59.015907,92.581139 
	C58.038269,92.209908 57.070625,91.421341 56.438957,90.271446 
	C57.032131,89.869469 57.289326,89.828819 57.546524,89.788177 
	C57.988808,89.904259 58.431091,90.020340 59.023315,90.313171 
	C59.124138,91.047882 59.075016,91.605850 59.015907,92.581139 
z"/>
<path fill="#EC932B" opacity="1.000000" stroke="none" 
	d="
M57.330444,89.514908 
	C57.289326,89.828819 57.032131,89.869469 56.386868,89.954498 
	C55.362587,90.445099 54.726372,90.891304 54.025909,91.645157 
	C51.662727,91.513290 48.031452,93.605980 48.349770,88.458290 
	C50.513927,88.748634 52.192959,89.138992 51.976955,86.210609 
	C53.689426,87.220947 55.401894,88.231293 57.330444,89.514908 
z"/>
<path fill="#F39123" opacity="1.000000" stroke="none" 
	d="
M51.745106,86.067764 
	C52.192959,89.138992 50.513927,88.748634 48.349350,88.055206 
	C48.265625,87.523529 48.515213,87.028343 48.875465,86.279510 
	C49.232422,85.988281 49.478714,85.950684 50.090450,85.823006 
	C50.808350,85.796921 51.160805,85.860916 51.745106,86.067764 
z"/>
<path fill="#F39123" opacity="1.000000" stroke="none" 
	d="
M43.003956,85.665802 
	C42.510117,85.679527 42.015812,85.361725 41.521507,85.043922 
	C41.826672,84.727943 42.131832,84.411964 42.723747,84.052208 
	C43.008160,84.450386 43.005825,84.892326 43.003956,85.665802 
z"/>
<path fill="#F39123" opacity="1.000000" stroke="none" 
	d="
M56.148056,127.308548 
	C56.919102,122.861557 53.605774,121.748962 51.052490,119.958611 
	C47.808041,117.683609 44.104851,115.519394 45.507153,110.042603 
	C50.811485,114.405342 55.772633,118.485817 60.908321,122.709854 
	C60.716812,123.613892 60.321442,125.480286 59.967773,127.687782 
	C58.775707,127.882492 57.541943,127.736099 56.148056,127.308548 
z"/>
<path fill="#F39123" opacity="1.000000" stroke="none" 
	d="
M60.995098,128.346100 
	C61.778927,127.005310 62.569679,125.997673 63.597805,124.687546 
	C66.678123,127.917137 65.710411,129.622986 62.342621,130.955368 
	C61.667137,130.226425 61.334576,129.452850 60.995098,128.346100 
z"/>
<path fill="#F39123" opacity="1.000000" stroke="none" 
	d="
M68.142899,135.277618 
	C70.523598,133.627472 72.154907,133.843964 71.748825,137.624939 
	C71.503632,138.000244 71.010857,138.002747 71.010857,138.002747 
	C70.103409,137.185684 69.195969,136.368622 68.142899,135.277618 
z"/>
<path fill="#45260A" opacity="1.000000" stroke="none" 
	d="
M40.009800,121.045555 
	C39.347958,120.249237 38.686111,119.452911 38.027565,118.301491 
	C38.991859,118.711868 39.952858,119.477341 40.989502,120.587387 
	C41.065151,120.931946 40.961990,121.058830 40.724060,121.049957 
	C40.486134,121.041084 40.009800,121.045555 40.009800,121.045555 
z"/>
<path fill="#45260A" opacity="1.000000" stroke="none" 
	d="
M35.878014,115.705605 
	C35.069687,115.524483 34.104530,115.071365 33.097336,114.270248 
	C33.943924,114.426033 34.832550,114.929825 35.878014,115.705605 
z"/>
<path fill="#45260A" opacity="1.000000" stroke="none" 
	d="
M32.866886,113.619469 
	C32.122078,113.659821 31.182117,113.379425 30.085783,112.733910 
	C30.843519,112.678764 31.757627,112.988739 32.866886,113.619469 
z"/>
<path fill="#45260A" opacity="1.000000" stroke="none" 
	d="
M41.118710,120.870163 
	C41.735565,120.975456 42.298862,121.142532 42.962639,121.624878 
	C43.063118,121.940147 42.947807,122.070557 42.660957,122.026077 
	C41.903400,121.674004 41.432693,121.366417 40.961990,121.058830 
	C40.961990,121.058830 41.065151,120.931946 41.118710,120.870163 
z"/>
<path fill="#45260A" opacity="1.000000" stroke="none" 
	d="
M43.123505,121.877464 
	C43.530647,121.901947 43.776314,122.109032 44.010315,122.667229 
	C44.099739,122.898422 44.014717,122.977875 43.772827,122.887955 
	C43.284386,122.597359 43.090012,122.354866 42.947807,122.070557 
	C42.947807,122.070557 43.063118,121.940147 43.123505,121.877464 
z"/>
<path fill="#F69022" opacity="1.000000" stroke="none" 
	d="
M71.015030,138.236465 
	C71.010857,138.002747 71.503632,138.000244 71.749908,137.998215 
	C71.996185,137.996185 72.000923,138.000961 71.999481,138.235382 
	C71.998032,138.469818 71.988403,138.931610 71.988403,138.931610 
	C71.988403,138.931610 71.524467,138.960144 71.293488,138.947922 
	C71.062515,138.935699 71.019196,138.470184 71.015030,138.236465 
z"/>
<path fill="#45260A" opacity="1.000000" stroke="none" 
	d="
M37.037926,116.691582 
	C36.836540,116.769875 36.547531,116.593536 36.135777,116.190643 
	C36.325455,116.121712 36.637878,116.279327 37.037926,116.691582 
z"/>
<path fill="#45260A" opacity="1.000000" stroke="none" 
	d="
M37.965858,117.731728 
	C37.789429,117.773521 37.518158,117.566574 37.148422,117.118164 
	C37.323639,117.078796 37.597332,117.280891 37.965858,117.731728 
z"/>
<path fill="#3F2A1C" opacity="1.000000" stroke="none" 
	d="
M42.660957,122.026077 
	C43.090012,122.354866 43.284386,122.597359 43.727867,122.924889 
	C43.949081,123.788727 43.973366,124.525703 43.998978,125.631500 
	C43.258495,126.004356 42.516685,126.008408 41.404999,126.018120 
	C37.173557,125.489441 38.649025,123.547630 39.948185,121.357056 
	C40.009800,121.045555 40.486134,121.041084 40.724060,121.049957 
	C41.432693,121.366417 41.903400,121.674004 42.660957,122.026077 
z"/>
<path fill="#F39123" opacity="1.000000" stroke="none" 
	d="
M101.002640,102.003601 
	C100.445618,101.491287 99.888588,100.978973 99.166290,100.232635 
	C101.805077,99.213692 104.609138,98.428780 107.677353,97.417694 
	C108.698738,97.129913 109.455956,97.068306 110.814011,97.212387 
	C115.016647,98.312675 118.618446,99.207275 122.112442,100.321930 
	C121.814125,100.831177 121.549278,101.010681 120.872635,101.064240 
	C119.871704,101.356949 119.208221,101.665924 118.544739,101.974899 
	C119.017532,102.319656 119.490334,102.664406 120.009483,103.308334 
	C120.413910,104.061882 120.771996,104.516243 121.378418,105.106934 
	C122.082573,105.832840 122.538383,106.422424 123.120438,107.227554 
	C123.469246,107.707687 123.748199,107.882187 124.048225,107.971970 
	C124.012924,107.977341 124.028488,107.907646 124.176804,108.219742 
	C126.916191,111.099106 128.606277,109.772865 130.203369,107.122589 
	C130.395157,107.029236 130.813675,106.946640 131.042084,106.886505 
	C131.566315,106.694321 131.802017,106.492180 132.199554,106.141937 
	C132.421509,106.063911 132.880890,105.962181 133.262421,105.975784 
	C134.765656,105.328651 135.887360,104.667915 137.009064,104.007179 
	C138.127136,103.765533 139.245193,103.523888 140.929138,103.153748 
	C141.495010,103.025253 141.990646,103.049110 142.164459,103.263000 
	C142.673950,103.616264 143.009659,103.755638 143.345352,103.895012 
	C143.638748,103.956596 143.851440,104.121979 144.059998,104.930267 
	C144.788101,105.955322 145.439636,106.441277 146.091156,106.927238 
	C146.091156,106.927238 146.092697,106.904633 146.105377,106.896088 
	C147.384094,109.025597 148.650146,111.163658 149.705734,113.838898 
	C148.629257,114.918686 147.763229,115.461296 146.756561,115.759338 
	C146.362289,114.811050 146.108658,114.107338 145.840668,112.999069 
	C141.753693,108.345085 134.630310,108.961182 131.187729,113.856232 
	C129.262436,116.593803 129.661499,118.388115 133.532303,119.074196 
	C134.933731,119.606613 136.023727,119.982666 137.426147,120.549667 
	C140.822037,121.158981 143.905533,121.577354 147.243103,121.997856 
	C147.666595,122.001961 147.835968,122.003944 148.005341,122.005920 
	C148.002853,122.449959 148.000351,122.893990 147.992920,123.671112 
	C146.921890,124.003067 145.855804,124.001945 143.945236,124.002396 
	C139.308838,123.575157 135.767731,123.992477 132.632278,126.992294 
	C125.972725,126.583084 132.496536,122.169571 129.842896,120.156052 
	C128.937912,120.784546 127.922623,121.489655 126.704056,121.927597 
	C126.303169,120.797874 126.105560,119.935326 126.148849,118.862984 
	C126.757919,115.607193 125.319618,114.124199 122.078079,113.794434 
	C121.271057,113.302238 120.727020,112.989510 120.138184,112.407112 
	C120.028603,111.780846 119.963837,111.424255 120.141800,110.863754 
	C119.178993,109.471008 117.973442,108.282173 116.571579,106.958908 
	C116.145988,106.582771 116.024307,106.295494 116.000076,105.576057 
	C114.274384,103.793221 112.684273,101.460251 110.815208,101.209900 
	C107.636818,100.784172 104.282837,101.669304 101.002640,102.003601 
z"/>
<path fill="#FBDDBA" opacity="1.000000" stroke="none" 
	d="
M118.809334,147.975739 
	C118.237801,147.172134 117.666260,146.368515 117.037292,144.961960 
	C117.643867,143.195236 118.307869,142.031448 119.371460,140.865921 
	C121.096954,140.956619 122.422836,141.049072 123.931381,141.403137 
	C124.996643,142.187485 125.879242,142.710205 126.856766,143.172455 
	C126.951675,143.111969 126.786102,143.264465 126.878601,143.602295 
	C127.370071,145.296234 127.769058,146.652313 128.168045,148.008408 
	C127.846313,148.452789 127.524582,148.897171 126.675179,149.592926 
	C124.826920,149.862854 123.506340,149.881409 121.957138,149.668823 
	C120.755463,148.950394 119.782402,148.463058 118.809334,147.975739 
z"/>
<path fill="#EDE8DB" opacity="1.000000" stroke="none" 
	d="
M141.845001,130.555679 
	C141.799347,130.858124 141.850372,131.143280 141.890442,131.928284 
	C141.146423,133.857132 140.510025,135.268845 139.568954,136.728088 
	C138.854538,136.753082 138.444794,136.730560 137.862732,136.463928 
	C136.446091,135.820999 135.201797,135.422165 133.683685,134.938507 
	C133.045044,134.744980 132.680237,134.636276 132.293854,134.266266 
	C132.235291,133.657211 132.198273,133.309494 132.373596,132.789185 
	C132.569397,131.771118 132.552841,130.925613 132.575897,129.880646 
	C132.753906,129.446640 132.880676,129.205963 133.424347,128.978806 
	C135.567886,129.013077 137.282867,129.027710 139.224472,129.171875 
	C139.624313,129.318008 139.797531,129.334610 140.066589,129.453323 
	C140.162430,129.555435 140.433640,129.485596 140.433640,129.485596 
	C140.433640,129.485596 140.679428,129.470154 140.752274,129.655151 
	C141.165085,130.078644 141.505035,130.317169 141.845001,130.555679 
z"/>
<path fill="#EC932B" opacity="1.000000" stroke="none" 
	d="
M140.700226,129.187332 
	C140.433640,129.485596 140.162430,129.555435 140.023193,129.249237 
	C139.588593,128.976151 139.293213,129.009232 138.997849,129.042328 
	C137.282867,129.027710 135.567886,129.013077 133.419693,128.652435 
	C132.989151,127.870964 132.991837,127.435478 132.994507,127.000000 
	C135.767731,123.992477 139.308838,123.575157 143.545197,124.003357 
	C142.982010,125.631516 141.974411,127.260292 140.700226,129.187332 
z"/>
<path fill="#F5921E" opacity="1.000000" stroke="none" 
	d="
M133.003250,137.991806 
	C131.474197,139.484451 129.945145,140.977097 127.900543,142.775146 
	C127.185364,143.141861 126.985733,143.203171 126.786102,143.264465 
	C126.786102,143.264465 126.951675,143.111969 126.884773,142.836533 
	C126.219193,142.027084 125.620514,141.493073 125.017975,140.632828 
	C125.011497,139.871613 125.008881,139.436646 125.299194,138.846802 
	C127.730118,138.126770 129.868103,137.561615 132.215729,137.114807 
	C132.686417,137.433899 132.879059,137.686783 133.003250,137.991806 
z"/>
<path fill="#EC932B" opacity="1.000000" stroke="none" 
	d="
M122.185753,149.899933 
	C123.506340,149.881409 124.826920,149.862854 126.543503,149.834091 
	C125.658905,153.982895 122.949417,151.292450 120.382874,151.062012 
	C116.399132,150.567245 116.319115,150.482925 117.768936,148.352264 
	C119.580467,149.021378 120.883110,149.460663 122.185753,149.899933 
z"/>
<path fill="#EB983E" opacity="1.000000" stroke="none" 
	d="
M133.378937,138.046539 
	C132.879059,137.686783 132.686417,137.433899 132.231720,136.700378 
	C132.130554,135.620911 132.222992,135.074249 132.315430,134.527573 
	C132.680237,134.636276 133.045044,134.744980 133.840546,135.246277 
	C135.525833,135.995270 136.780457,136.351654 138.035065,136.708038 
	C138.444794,136.730560 138.854538,136.753082 139.848602,136.851807 
	C140.628235,136.984818 140.823517,137.041641 141.017212,137.327042 
	C141.015640,137.555634 141.014618,138.013596 141.014618,138.013596 
	C138.594620,138.042831 136.174606,138.072067 133.378937,138.046539 
z"/>
<path fill="#FCD5AA" opacity="1.000000" stroke="none" 
	d="
M141.018784,137.098450 
	C140.823517,137.041641 140.628235,136.984818 140.153290,136.804276 
	C140.510025,135.268845 141.146423,133.857132 141.949463,132.140366 
	C142.292358,131.835815 142.468567,131.836334 142.961975,132.160492 
	C143.523834,133.000992 143.768494,133.517868 144.013138,134.034744 
	C144.013138,134.034744 143.912872,134.415024 143.651230,134.766541 
	C142.866470,135.712708 142.343353,136.307358 141.613831,136.926498 
	C141.407440,136.950989 141.018784,137.098450 141.018784,137.098450 
z"/>
<path fill="#E89A45" opacity="1.000000" stroke="none" 
	d="
M126.878601,143.602295 
	C126.985733,143.203171 127.185364,143.141861 127.693680,143.026840 
	C128.208847,144.478348 128.415314,145.983582 128.394928,147.748611 
	C127.769058,146.652313 127.370071,145.296234 126.878601,143.602295 
z"/>
<path fill="#EB983E" opacity="1.000000" stroke="none" 
	d="
M141.820236,136.902008 
	C142.343353,136.307358 142.866470,135.712708 143.645584,134.963104 
	C143.934738,135.291809 143.967911,135.775467 143.634613,136.623276 
	C142.785522,136.958969 142.302872,136.930481 141.820236,136.902008 
z"/>
<path fill="#EC932B" opacity="1.000000" stroke="none" 
	d="
M141.613831,136.926498 
	C142.302872,136.930481 142.785522,136.958969 143.630096,136.985870 
	C143.221725,137.322739 142.451385,137.661163 141.347839,138.006592 
	C141.014618,138.013596 141.015640,137.555634 141.017212,137.327042 
	C141.018784,137.098450 141.407440,136.950989 141.613831,136.926498 
z"/>
<path fill="#EB983E" opacity="1.000000" stroke="none" 
	d="
M144.224930,133.857971 
	C143.768494,133.517868 143.523834,133.000992 143.222778,132.203659 
	C143.589813,132.509186 144.013275,133.095184 144.224930,133.857971 
z"/>
<path fill="#EC932B" opacity="1.000000" stroke="none" 
	d="
M141.773834,130.242172 
	C141.505035,130.317169 141.165085,130.078644 140.757721,129.532120 
	C141.027786,129.458969 141.365219,129.693817 141.773834,130.242172 
z"/>
<path fill="#F39123" opacity="1.000000" stroke="none" 
	d="
M72.356339,138.961243 
	C71.988403,138.931610 71.998032,138.469818 72.003105,138.239029 
	C73.611824,138.435287 75.215462,138.862350 76.899933,139.651367 
	C75.561928,139.672485 74.143097,139.331665 72.356339,138.961243 
z"/>
<path fill="#5B3010" opacity="1.000000" stroke="none" 
	d="
M149.978745,138.759399 
	C149.896835,138.538635 150.119492,138.183243 150.597717,137.638107 
	C150.663300,137.840515 150.473312,138.232635 149.978745,138.759399 
z"/>
<path fill="#FDDBBD" opacity="1.000000" stroke="none" 
	d="
M122.994194,107.012009 
	C122.538383,106.422424 122.082573,105.832840 121.340324,104.739548 
	C120.980377,103.501862 120.906868,102.767876 120.943024,101.801666 
	C121.105148,101.406464 121.157623,101.243484 121.210091,101.080513 
	C121.549278,101.010681 121.814125,100.831177 122.361877,100.209946 
	C123.180931,99.326172 123.642754,98.774437 124.502823,98.211060 
	C125.958679,98.222252 127.016281,98.245079 127.975319,98.579315 
	C126.781784,100.504517 125.686821,102.118324 124.591858,103.732140 
	C126.078972,104.151306 127.857292,105.278374 128.981689,104.815819 
	C130.488785,104.195831 131.679062,102.463501 132.612228,100.964081 
	C132.970291,100.388771 132.246124,99.139938 132.015091,98.198006 
	C132.015091,98.198006 131.967041,97.990082 132.216675,97.916801 
	C132.466324,97.843521 132.954834,97.752464 132.954834,97.752464 
	C132.954834,97.752464 133.401505,97.943748 133.765213,98.275696 
	C134.675735,99.442596 135.222549,100.277557 135.769348,101.112526 
	C135.777008,101.513260 135.784668,101.913986 135.540726,102.773468 
	C134.486374,104.142204 133.683640,105.052193 132.880890,105.962181 
	C132.880890,105.962181 132.421509,106.063911 131.944580,106.137009 
	C131.249649,106.455612 131.031662,106.701126 130.813675,106.946640 
	C130.813675,106.946640 130.395157,107.029236 129.834473,107.202774 
	C127.525352,107.553413 125.776924,107.730530 124.028488,107.907646 
	C124.028488,107.907646 124.012924,107.977341 123.932243,107.746811 
	C123.565773,107.348183 123.279984,107.180092 122.994194,107.012009 
z"/>
<path fill="#E5EAD9" opacity="1.000000" stroke="none" 
	d="
M131.641296,98.145584 
	C132.246124,99.139938 132.970291,100.388771 132.612228,100.964081 
	C131.679062,102.463501 130.488785,104.195831 128.981689,104.815819 
	C127.857292,105.278374 126.078972,104.151306 124.591858,103.732140 
	C125.686821,102.118324 126.781784,100.504517 128.211731,98.494034 
	C128.701492,98.032593 128.856277,97.967819 129.011078,97.903046 
	C129.763214,97.966415 130.515366,98.029785 131.641296,98.145584 
z"/>
<path fill="#F49026" opacity="1.000000" stroke="none" 
	d="
M128.981964,97.502274 
	C128.856277,97.967819 128.701492,98.032593 128.310287,98.182640 
	C127.016281,98.245079 125.958679,98.222252 124.338089,97.840485 
	C123.331329,96.453918 122.887558,95.426300 122.443787,94.398682 
	C122.443787,94.398682 122.455727,94.377121 122.457840,94.367050 
	C124.624260,95.271812 126.788567,96.186661 128.981964,97.502274 
z"/>
<path fill="#E3912F" opacity="1.000000" stroke="none" 
	d="
M133.262421,105.975784 
	C133.683640,105.052193 134.486374,104.142204 135.547363,103.074020 
	C136.107178,103.124290 136.408768,103.332771 136.859711,103.774216 
	C135.887360,104.667915 134.765656,105.328651 133.262421,105.975784 
z"/>
<path fill="#E3912F" opacity="1.000000" stroke="none" 
	d="
M136.047455,100.894508 
	C135.222549,100.277557 134.675735,99.442596 134.002441,98.328064 
	C134.692505,98.924500 135.509048,99.800491 136.047455,100.894508 
z"/>
<path fill="#E3912F" opacity="1.000000" stroke="none" 
	d="
M141.990646,103.049110 
	C141.990646,103.049110 141.495010,103.025253 141.247208,103.012932 
	C141.017944,102.156128 141.036499,101.311646 141.097046,100.041702 
	C141.736420,100.529999 142.333817,101.443756 142.715118,102.689529 
	C142.329575,103.030746 142.160110,103.039932 141.990646,103.049110 
z"/>
<path fill="#E3912F" opacity="1.000000" stroke="none" 
	d="
M132.851852,97.640747 
	C132.954834,97.752464 132.466324,97.843521 132.220184,97.810158 
	C132.179428,97.480598 132.437714,97.398010 132.851852,97.640747 
z"/>
<path fill="#F79020" opacity="1.000000" stroke="none" 
	d="
M148.351013,121.929901 
	C147.835968,122.003944 147.666595,122.001961 147.245560,121.564095 
	C146.947296,119.962029 146.900681,118.795845 146.810715,117.359200 
	C146.810654,116.727127 146.853928,116.365517 146.897217,116.003906 
	C147.763229,115.461296 148.629257,114.918686 149.752151,114.182236 
	C154.767593,117.477173 149.859482,119.353081 148.351013,121.929901 
z"/>
<path fill="#EC932B" opacity="1.000000" stroke="none" 
	d="
M122.162033,94.265305 
	C122.887558,95.426300 123.331329,96.453918 123.939842,97.852112 
	C123.642754,98.774437 123.180931,99.326172 122.469681,99.989891 
	C118.618446,99.207275 115.016647,98.312675 111.192703,97.176697 
	C114.607147,96.000862 118.243713,95.066399 122.162033,94.265305 
z"/>
<path fill="#EC932B" opacity="1.000000" stroke="none" 
	d="
M145.986969,106.645233 
	C145.439636,106.441277 144.788101,105.955322 144.118073,105.129944 
	C144.693970,105.314758 145.288376,105.838989 145.986969,106.645233 
z"/>
<path fill="#EC932B" opacity="1.000000" stroke="none" 
	d="
M142.164459,103.263000 
	C142.160110,103.039932 142.329575,103.030746 142.753601,103.015205 
	C143.008148,103.008850 143.201035,103.442436 143.273193,103.668724 
	C143.009659,103.755638 142.673950,103.616264 142.164459,103.263000 
z"/>
<path fill="#F39123" opacity="1.000000" stroke="none" 
	d="
M92.631271,99.024834 
	C92.671379,99.861305 92.335854,100.688454 92.000336,101.515610 
	C91.363869,100.903877 90.727402,100.292137 90.046600,99.350754 
	C90.753395,99.019249 91.504517,99.017380 92.631271,99.024834 
z"/>
<path fill="#F79023" opacity="1.000000" stroke="none" 
	d="
M132.293869,134.266266 
	C132.222992,135.074249 132.130554,135.620911 132.022110,136.582031 
	C129.868103,137.561615 127.730118,138.126770 125.169022,138.586136 
	C124.163940,137.987122 123.581970,137.493881 123.000000,137.000656 
	C123.663048,135.569153 124.326088,134.137665 125.279999,132.101227 
	C125.855858,130.056961 126.140854,128.617630 126.487083,126.841820 
	C126.667992,125.068481 126.787651,123.631622 126.907318,122.194756 
	C127.922623,121.489655 128.937912,120.784546 129.842896,120.156052 
	C132.496536,122.169571 125.972725,126.583084 132.632278,126.992294 
	C132.991837,127.435478 132.989151,127.870964 132.991135,128.632812 
	C132.880676,129.205963 132.753906,129.446640 132.308517,130.006500 
	C131.692322,130.570755 131.383102,130.809692 131.021790,130.772552 
	C130.558929,130.186523 130.148163,129.876572 129.737381,129.566635 
	C129.832077,130.051819 129.926773,130.537018 130.017395,131.295609 
	C130.382858,131.972748 130.752380,132.376480 131.377808,132.848083 
	C131.809555,132.931198 131.985397,132.946472 132.161255,132.961761 
	C132.198273,133.309494 132.235291,133.657211 132.293869,134.266266 
z"/>
<path fill="#F9DBB7" opacity="1.000000" stroke="none" 
	d="
M96.781219,132.067764 
	C96.861992,130.984833 96.942764,129.901886 97.192657,128.114441 
	C97.624374,126.267982 97.886963,125.126038 98.149559,123.984100 
	C98.149559,123.984100 98.257179,123.712509 98.452164,123.289406 
	C98.823395,121.659676 98.999641,120.453041 99.423721,119.193008 
	C99.839622,119.121826 100.007698,119.104050 100.415421,119.365723 
	C100.287949,122.696381 100.186737,125.809731 99.491539,128.784256 
	C98.440491,133.281326 100.559898,135.424164 104.544533,135.942505 
	C107.731171,136.357056 111.004707,136.103683 114.088272,136.382874 
	C113.590561,137.050400 113.244247,137.481781 112.897919,137.913162 
	C112.897919,137.913162 113.003418,137.941589 112.553436,137.925247 
	C103.003044,140.187500 100.137283,139.095016 96.781219,132.067764 
z"/>
<path fill="#F39123" opacity="1.000000" stroke="none" 
	d="
M100.175766,119.086266 
	C100.007698,119.104050 99.839622,119.121826 99.277710,119.015564 
	C98.589981,119.260712 98.296082,119.629898 98.002182,119.999084 
	C94.734360,115.551003 94.508507,110.444824 95.208015,105.309669 
	C95.491577,103.227989 96.548714,100.405106 99.037636,105.024643 
	C99.675552,106.253235 100.182938,106.775665 100.594864,107.703682 
	C100.576111,109.764862 100.652802,111.420464 100.612610,113.489075 
	C100.389069,115.630142 100.282417,117.358200 100.175766,119.086266 
z"/>
<path fill="#EC932B" opacity="1.000000" stroke="none" 
	d="
M96.562737,132.349640 
	C100.137283,139.095016 103.003044,140.187500 112.511124,137.890686 
	C111.341095,141.000717 104.792015,142.279526 100.426071,140.350250 
	C99.251724,139.831299 98.018845,139.444824 96.408417,138.661896 
	C96.002472,137.884171 96.000931,137.442093 95.999390,137.000000 
	C96.114342,135.543839 96.229301,134.087692 96.562737,132.349640 
z"/>
<path fill="#EC932B" opacity="1.000000" stroke="none" 
	d="
M100.690323,107.298103 
	C100.182938,106.775665 99.675552,106.253235 99.083809,105.363312 
	C99.660141,104.230278 100.320839,103.464745 100.992096,102.351395 
	C104.282837,101.669304 107.636818,100.784172 110.815208,101.209900 
	C112.684273,101.460251 114.274384,103.793221 115.683243,105.410980 
	C110.127747,101.579628 106.307465,102.012901 100.690323,107.298103 
z"/>
<path fill="#F9DBB7" opacity="1.000000" stroke="none" 
	d="
M117.893143,134.961792 
	C117.589233,134.965622 117.335045,135.080002 116.689163,135.542267 
	C115.820602,135.807602 115.393456,135.835587 115.023285,135.521469 
	C117.754959,133.118484 118.060387,127.612625 123.322006,129.745758 
	C122.468414,131.016663 121.707253,131.989365 120.946091,132.962051 
	C120.946091,132.962051 120.992104,133.003403 120.739235,133.058014 
	C120.295525,133.391174 120.104691,133.669739 119.913857,133.948288 
	C119.913857,133.948288 120.002945,133.973236 119.673866,133.949005 
	C118.860909,134.270447 118.377022,134.616119 117.893143,134.961792 
z"/>
<path fill="#EC932B" opacity="1.000000" stroke="none" 
	d="
M122.662201,137.041229 
	C123.581970,137.493881 124.163940,137.987122 124.876091,138.740997 
	C125.008881,139.436646 125.011497,139.871613 124.698029,140.667786 
	C124.170868,141.066498 123.959793,141.104004 123.748726,141.141525 
	C122.422836,141.049072 121.096954,140.956619 119.254845,140.673386 
	C118.529945,140.256485 118.281158,140.090485 117.992264,139.984573 
	C119.436310,139.016983 120.880363,138.049393 122.662201,137.041229 
z"/>
<path fill="#F39123" opacity="1.000000" stroke="none" 
	d="
M46.221001,101.205780 
	C47.226200,102.187057 47.873463,103.212334 48.520721,104.237602 
	C47.482937,104.334633 46.445156,104.431656 45.407372,104.528679 
	C45.559269,103.435707 45.711166,102.342735 46.221001,101.205780 
z"/>
<path fill="#F39123" opacity="1.000000" stroke="none" 
	d="
M83.327698,136.652832 
	C81.841629,136.728058 80.684525,136.651733 79.527428,136.575424 
	C79.462395,136.079498 79.397362,135.583588 79.332336,135.087677 
	C80.809761,134.799240 82.287186,134.510818 83.764618,134.222382 
	C83.728630,134.982025 83.692642,135.741653 83.327698,136.652832 
z"/>
<path fill="#EC932B" opacity="1.000000" stroke="none" 
	d="
M121.300423,132.972809 
	C121.707253,131.989365 122.468414,131.016663 123.345169,129.722992 
	C123.460754,129.402008 123.477318,129.337494 123.766655,129.252899 
	C124.845947,128.504974 125.635902,127.841637 126.425850,127.178299 
	C126.140854,128.617630 125.855858,130.056961 125.285889,131.751801 
	C123.885529,132.332733 122.770134,132.658157 121.300423,132.972809 
z"/>
<path fill="#E89A45" opacity="1.000000" stroke="none" 
	d="
M117.657776,140.038834 
	C118.281158,140.090485 118.529945,140.256485 118.855240,140.675125 
	C118.307869,142.031448 117.643867,143.195236 116.897568,144.697922 
	C112.006477,142.877365 114.828117,141.501999 117.657776,140.038834 
z"/>
<path fill="#F39123" opacity="1.000000" stroke="none" 
	d="
M95.646072,137.045685 
	C96.000931,137.442093 96.002472,137.884171 96.005432,138.657623 
	C94.621025,139.338776 93.235199,139.688599 91.849380,140.038406 
	C91.687256,139.591583 91.525139,139.144745 91.363022,138.697922 
	C92.672935,138.162399 93.982849,137.626877 95.646072,137.045685 
z"/>
<path fill="#EC932B" opacity="1.000000" stroke="none" 
	d="
M97.802170,124.044998 
	C97.886963,125.126038 97.624374,126.267982 97.165611,127.707092 
	C97.131218,126.704811 97.292999,125.405357 97.802170,124.044998 
z"/>
<path fill="#EC932B" opacity="1.000000" stroke="none" 
	d="
M114.966316,135.863556 
	C115.393456,135.835587 115.820602,135.807602 116.565361,135.717072 
	C115.818481,136.426880 114.753990,137.199203 113.293716,137.942352 
	C113.244247,137.481781 113.590561,137.050400 114.283539,136.347961 
	C114.630196,136.076935 114.966316,135.863556 114.966316,135.863556 
z"/>
<path fill="#EC932B" opacity="1.000000" stroke="none" 
	d="
M98.002762,120.427338 
	C98.296082,119.629898 98.589981,119.260712 99.029884,119.068970 
	C98.999641,120.453041 98.823395,121.659676 98.395027,123.154976 
	C98.096382,122.580963 98.049858,121.718269 98.002762,120.427338 
z"/>
<path fill="#E89A45" opacity="1.000000" stroke="none" 
	d="
M121.957138,149.668823 
	C120.883110,149.460663 119.580467,149.021378 118.071327,148.282471 
	C117.864830,147.982834 118.338028,147.949219 118.573685,147.962479 
	C119.782402,148.463058 120.755463,148.950394 121.957138,149.668823 
z"/>
<path fill="#EC932B" opacity="1.000000" stroke="none" 
	d="
M118.205467,134.949051 
	C118.377022,134.616119 118.860909,134.270447 119.650833,133.908890 
	C119.477188,134.240753 118.997490,134.588531 118.205467,134.949051 
z"/>
<path fill="#EC932B" opacity="1.000000" stroke="none" 
	d="
M120.147034,133.847137 
	C120.104691,133.669739 120.295525,133.391174 120.732742,133.028198 
	C120.779488,133.211166 120.579842,133.478577 120.147034,133.847137 
z"/>
<path fill="#EFE7DA" opacity="1.000000" stroke="none" 
	d="
M115.023285,135.521469 
	C114.966316,135.863556 114.630196,136.076935 114.434937,136.111847 
	C111.004707,136.103683 107.731171,136.357056 104.544533,135.942505 
	C100.559898,135.424164 98.440491,133.281326 99.491539,128.784256 
	C100.186737,125.809731 100.287949,122.696381 100.415421,119.365723 
	C100.282417,117.358200 100.389069,115.630142 100.867340,113.323624 
	C102.828804,110.836586 104.418655,108.928009 106.009476,107.396591 
	C106.729965,108.759621 107.516991,110.623024 108.156845,110.573792 
	C110.465508,110.396141 112.724609,109.574471 115.342224,109.002167 
	C116.134888,109.003838 116.587769,108.999374 117.299278,109.139397 
	C118.338295,109.878479 119.118683,110.473068 119.899063,111.067657 
	C119.963837,111.424255 120.028603,111.780846 120.114746,112.760857 
	C120.783257,113.910439 121.430405,114.436607 122.340195,115.113525 
	C123.138092,116.087914 123.673355,116.911552 124.153717,118.145523 
	C124.282700,121.484726 126.572716,124.713707 122.840530,127.137253 
	C122.654839,127.257828 123.247223,128.576630 123.477318,129.337494 
	C123.477318,129.337494 123.460754,129.402008 123.437592,129.424789 
	C118.060387,127.612625 117.754959,133.118484 115.023285,135.521469 
z"/>
<path fill="#F6DCC1" opacity="1.000000" stroke="none" 
	d="
M146.756561,115.759338 
	C146.853928,116.365517 146.810654,116.727127 146.501190,117.584290 
	C143.194565,118.839478 140.154160,119.599098 137.113739,120.358719 
	C136.023727,119.982666 134.933731,119.606613 133.480865,118.678841 
	C132.516891,113.918129 135.025497,112.222298 138.592804,112.129234 
	C141.000809,112.066414 143.433426,112.945740 145.855026,113.403625 
	C146.108658,114.107338 146.362289,114.811050 146.756561,115.759338 
z"/>
<path fill="#F9DBB7" opacity="1.000000" stroke="none" 
	d="
M106.008499,107.019424 
	C104.418655,108.928009 102.828804,110.836586 100.984230,112.910614 
	C100.652802,111.420464 100.576111,109.764862 100.594864,107.703682 
	C106.307465,102.012901 110.127747,101.579628 115.693367,105.797569 
	C116.024307,106.295494 116.145988,106.582771 116.625572,107.275330 
	C116.930809,108.149086 116.985725,108.571999 117.040642,108.994904 
	C116.587769,108.999374 116.134888,109.003838 115.254623,108.649002 
	C111.887650,107.866272 108.948074,107.442848 106.008499,107.019424 
z"/>
<path fill="#EC932B" opacity="1.000000" stroke="none" 
	d="
M145.840668,112.999062 
	C143.433426,112.945740 141.000809,112.066414 138.592804,112.129234 
	C135.025497,112.222298 132.516891,113.918129 133.169434,118.522476 
	C129.661499,118.388115 129.262436,116.593803 131.187729,113.856232 
	C134.630310,108.961182 141.753693,108.345085 145.840668,112.999062 
z"/>
<path fill="#F9DBB7" opacity="1.000000" stroke="none" 
	d="
M123.766655,129.252899 
	C123.247223,128.576630 122.654839,127.257828 122.840530,127.137253 
	C126.572716,124.713707 124.282700,121.484726 124.384674,118.289520 
	C125.083000,118.373047 125.495476,118.722908 125.907951,119.072769 
	C126.105560,119.935326 126.303169,120.797874 126.704048,121.927597 
	C126.787651,123.631622 126.667992,125.068481 126.487091,126.841827 
	C125.635902,127.841637 124.845947,128.504974 123.766655,129.252899 
z"/>
<path fill="#EC932B" opacity="1.000000" stroke="none" 
	d="
M137.426147,120.549667 
	C140.154160,119.599098 143.194565,118.839478 146.544525,117.854759 
	C146.900681,118.795845 146.947296,119.962029 146.991455,121.561966 
	C143.905533,121.577354 140.822037,121.158981 137.426147,120.549667 
z"/>
<path fill="#EC932B" opacity="1.000000" stroke="none" 
	d="
M126.148849,118.862984 
	C125.495476,118.722908 125.083000,118.373047 124.439575,117.879189 
	C123.673355,116.911552 123.138092,116.087914 122.398987,114.864487 
	C122.243767,114.301102 122.292412,114.137497 122.341057,113.973900 
	C125.319618,114.124199 126.757919,115.607193 126.148849,118.862984 
z"/>
<path fill="#EC932B" opacity="1.000000" stroke="none" 
	d="
M117.299278,109.139397 
	C116.985725,108.571999 116.930809,108.149086 116.821899,107.409760 
	C117.973442,108.282173 119.178993,109.471008 120.141800,110.863754 
	C119.118683,110.473068 118.338295,109.878479 117.299278,109.139397 
z"/>
<path fill="#E3912F" opacity="1.000000" stroke="none" 
	d="
M124.176804,108.219742 
	C125.776924,107.730530 127.525352,107.553413 129.642685,107.296127 
	C128.606277,109.772865 126.916191,111.099106 124.176804,108.219742 
z"/>
<path fill="#F49026" opacity="1.000000" stroke="none" 
	d="
M120.872635,101.064240 
	C121.157623,101.243484 121.105148,101.406464 120.758591,101.924789 
	C120.241760,102.484886 120.074638,102.727890 119.963135,103.009155 
	C119.490334,102.664406 119.017532,102.319656 118.544739,101.974899 
	C119.208221,101.665924 119.871704,101.356949 120.872635,101.064240 
z"/>
<path fill="#F9DBB7" opacity="1.000000" stroke="none" 
	d="
M122.078079,113.794434 
	C122.292412,114.137497 122.243767,114.301102 122.136337,114.713737 
	C121.430405,114.436607 120.783257,113.910439 120.159546,113.030525 
	C120.727020,112.989510 121.271057,113.302238 122.078079,113.794434 
z"/>
<path fill="#E3912F" opacity="1.000000" stroke="none" 
	d="
M120.009483,103.308334 
	C120.074638,102.727890 120.241760,102.484886 120.648926,102.157013 
	C120.906868,102.767876 120.980377,103.501862 121.091980,104.603226 
	C120.771996,104.516243 120.413910,104.061882 120.009483,103.308334 
z"/>
<path fill="#E3912F" opacity="1.000000" stroke="none" 
	d="
M131.042084,106.886505 
	C131.031662,106.701126 131.249649,106.455612 131.722626,106.215027 
	C131.802017,106.492180 131.566315,106.694321 131.042084,106.886505 
z"/>
<path fill="#E3912F" opacity="1.000000" stroke="none" 
	d="
M123.120438,107.227554 
	C123.279984,107.180092 123.565773,107.348183 123.967545,107.741432 
	C123.748199,107.882187 123.469246,107.707687 123.120438,107.227554 
z"/>
<path fill="#E89A45" opacity="1.000000" stroke="none" 
	d="
M123.931381,141.403137 
	C123.959793,141.104004 124.170868,141.066498 124.701889,140.994019 
	C125.620514,141.493073 126.219193,142.027084 126.789856,142.897003 
	C125.879242,142.710205 124.996643,142.187485 123.931381,141.403137 
z"/>
<path fill="#FCD5AA" opacity="1.000000" stroke="none" 
	d="
M137.862732,136.463928 
	C136.780457,136.351654 135.525833,135.995270 134.114349,135.331116 
	C135.201797,135.422165 136.446091,135.820999 137.862732,136.463928 
z"/>
<path fill="#FCD5AA" opacity="1.000000" stroke="none" 
	d="
M132.373596,132.789185 
	C131.985397,132.946472 131.809555,132.931198 131.408554,132.568146 
	C131.162659,131.844208 131.141922,131.468079 131.122345,131.066193 
	C131.123489,131.040436 131.073883,131.048630 131.073883,131.048630 
	C131.383102,130.809692 131.692322,130.570755 132.268921,130.205963 
	C132.552841,130.925613 132.569397,131.771118 132.373596,132.789185 
z"/>
<path fill="#EB983E" opacity="1.000000" stroke="none" 
	d="
M139.224472,129.171875 
	C139.293213,129.009232 139.588593,128.976151 139.927368,129.147125 
	C139.797531,129.334610 139.624313,129.318008 139.224472,129.171875 
z"/>
<path fill="#EC932B" opacity="1.000000" stroke="none" 
	d="
M130.021454,131.022202 
	C129.926773,130.537018 129.832077,130.051819 129.737381,129.566635 
	C130.148163,129.876572 130.558929,130.186523 131.021790,130.772552 
	C131.073883,131.048630 131.123489,131.040436 130.847595,131.038132 
	C130.388275,131.031281 130.204865,131.026733 130.021454,131.022202 
z"/>
<path fill="#EB983E" opacity="1.000000" stroke="none" 
	d="
M130.017395,131.295609 
	C130.204865,131.026733 130.388275,131.031281 130.846436,131.063873 
	C131.141922,131.468079 131.162659,131.844208 131.152649,132.500275 
	C130.752380,132.376480 130.382858,131.972748 130.017395,131.295609 
z"/>
<path fill="#EAE8E8" opacity="1.000000" stroke="none" 
	d="
M106.009476,107.396584 
	C108.948074,107.442848 111.887650,107.866272 114.914825,108.642853 
	C112.724609,109.574471 110.465508,110.396141 108.156845,110.573792 
	C107.516991,110.623024 106.729965,108.759621 106.009476,107.396584 
z"/>
</svg>